# Mesh Id
o cube

# Vertex Positions
v -0.5 -0.5 0.5
v -0.5 -0.5 -0.5
v 0.5 -0.5 -0.5
v 0.5 -0.5 0.5
v -0.5 0.5 0.5
v -0.5 0.5 -0.5
v 0.5 0.5 -0.5
v 0.5 0.5 0.5

# Vertex Normals
vn -1.0 0.0 0.0
vn 0.0 0.0 -1.0
vn 1.0 -0.0 0.0
vn 0.0 -0.0 1.0
vn 0.0 -1.0 0.0
vn 0.0 1.0 0.0

# Vertex Texture Coordinates
vt 0.0 0.0
vt 0.0 1.0
vt 1.0 1.0
vt 1.0 0.0

# Triangle face indices: vertex/texture/normal
f 5/1/1 6/2/1 2/3/1
f 6/1/2 7/2/2 3/3/2
f 7/1/3 8/2/3 4/3/3
f 5/1/4 1/2/4 8/3/4
f 1/1/5 2/2/5 3/3/5
f 8/1/6 7/2/6 6/3/6
f 1/1/1 5/2/1 2/3/1
f 2/1/2 6/2/2 3/3/2
f 3/1/3 7/2/3 4/3/3
f 8/1/4 1/2/4 4/3/4
f 4/1/5 1/2/5 3/3/5
f 5/1/6 8/2/6 6/3/6
